<svg xmlns="http://www.w3.org/2000/svg" width="150" height="43" fill="none" viewBox="0 0 150 43">
  <rect width="23.852" height="23.852" y="7.954" fill="url(#a)" rx="11.926"/>
  <path fill="#010101" d="M11.913 26.087c3.384 0 6.127-2.764 6.127-6.173 0-3.408-2.743-6.172-6.127-6.172-3.383 0-6.126 2.764-6.126 6.172 0 3.41 2.743 6.173 6.126 6.173Z"/>
  <path fill="#0A0A0A" fill-rule="evenodd" d="M11.916 23.775c2.088 0 3.818-1.71 3.818-3.865 0-2.154-1.725-3.864-3.818-3.864s-3.819 1.71-3.819 3.864c0 2.155 1.726 3.865 3.819 3.865Zm0 2.517c3.497 0 6.335-2.859 6.335-6.382 0-3.522-2.838-6.381-6.335-6.381S5.58 16.388 5.58 19.91c0 3.523 2.839 6.382 6.336 6.382Z" clip-rule="evenodd"/>
  <path fill="url(#b)" fill-rule="evenodd" d="M11.915 23.805c2.103 0 3.844-1.726 3.844-3.89 0-2.165-1.74-3.89-3.844-3.89S8.07 17.75 8.07 19.915s1.74 3.89 3.844 3.89Zm0 2.537c3.522 0 6.381-2.879 6.381-6.427 0-3.548-2.859-6.428-6.381-6.428-3.523 0-6.382 2.88-6.382 6.428s2.86 6.427 6.382 6.427Z" clip-rule="evenodd"/>
  <path fill="#fff" d="M14.86 17.44a1.838 1.838 0 1 0 0-3.676 1.838 1.838 0 0 0 0 3.675Z"/>
  <path fill="url(#c)" d="M33.277 11.872c-.686 0-1.246-.195-1.68-.583-.435-.412-.653-.927-.653-1.544 0-.64.206-1.155.618-1.544.434-.412 1.006-.618 1.715-.618.664 0 1.201.206 1.613.618.411.389.617.903.617 1.544 0 .617-.217 1.132-.651 1.544-.412.388-.938.583-1.579.583Zm-1.955 2.539h3.808v16.81h-3.808v-16.81Z"/>
  <path fill="url(#d)" d="M38.693 7H42.5v24.222h-3.808V7Z"/>
  <path fill="url(#e)" d="M46.064 7h3.808v24.222h-3.808V7Z"/>
  <path fill="url(#f)" d="M68.805 14.41v16.812h-1.067l-2.385-2.283c-1.166 1.578-3.238 2.729-5.571 2.729-2.059 0-3.66-.584-4.804-1.75-1.12-1.166-1.68-2.87-1.68-5.112V14.411h3.773v9.64c0 1.51.309 2.62.927 3.328.64.71 1.59 1.064 2.847 1.064 1.35 0 2.379-.39 3.088-1.167.732-.777 1.098-1.91 1.098-3.396v-9.47h3.774Z"/>
  <path fill="url(#g)" d="M78.712 31.736c-1.693 0-3.111-.274-4.255-.823-1.12-.549-1.932-1.372-2.436-2.47-.366-.8-.549-1.739-.549-2.814h3.706c0 .64.114 1.178.343 1.613.503 1.098 1.59 1.647 3.26 1.647 1.669 0 2.698-.435 3.087-1.304a2.305 2.305 0 0 0 0-1.75 1.824 1.824 0 0 0-.79-.823c-.342-.206-.777-.378-1.303-.515-.503-.16-1.224-.331-2.161-.514-1.281-.298-2.368-.686-3.26-1.167-.892-.503-1.532-1.19-1.92-2.058-.23-.526-.344-1.144-.344-1.853 0-.755.137-1.418.412-1.99.434-.938 1.19-1.658 2.264-2.161 1.075-.526 2.367-.79 3.877-.79 1.532 0 2.825.252 3.877.755 1.075.504 1.852 1.247 2.333 2.23.297.687.446 1.51.446 2.47h-3.603c0-.503-.091-.971-.274-1.406-.229-.457-.595-.8-1.098-1.03-.48-.25-1.064-.377-1.75-.377-1.395 0-2.275.378-2.641 1.132-.092.206-.138.47-.138.79 0 .297.046.526.138.686.16.366.446.663.857.892.412.228.846.411 1.304.549.48.114 1.178.274 2.093.48 1.418.366 2.573.8 3.465 1.304.915.48 1.578 1.155 1.99 2.024.229.526.343 1.155.343 1.887 0 .8-.137 1.544-.412 2.23-.48 1.03-1.338 1.818-2.573 2.367-1.212.526-2.642.79-4.288.79Z"/>
  <path fill="url(#h)" d="M96.504 31.633c-1.921 0-3.545-.4-4.872-1.2a7.315 7.315 0 0 1-2.95-3.328c-.572-1.213-.858-2.642-.858-4.289 0-1.647.286-3.088.858-4.323a7.315 7.315 0 0 1 2.95-3.328c1.327-.8 2.95-1.2 4.872-1.2 1.921 0 3.545.4 4.872 1.2a7.267 7.267 0 0 1 2.985 3.328c.572 1.281.858 2.722.858 4.323 0 1.556-.286 2.996-.858 4.323a7.267 7.267 0 0 1-2.985 3.328c-1.327.778-2.95 1.166-4.872 1.166Zm0-3.19c1.03 0 1.887-.206 2.573-.618a3.987 3.987 0 0 0 1.579-1.784c.343-.777.514-1.852.514-3.225 0-1.395-.171-2.47-.514-3.225a3.763 3.763 0 0 0-1.579-1.784c-.686-.412-1.544-.617-2.573-.617-1.03 0-1.887.205-2.573.617-.686.412-1.2 1.007-1.544 1.784-.366.8-.549 1.876-.549 3.225 0 1.327.183 2.402.55 3.225.342.755.857 1.35 1.543 1.784.686.412 1.544.618 2.573.618Z"/>
  <path fill="url(#i)" d="M116.214 14.17c.663 0 1.235.07 1.715.206v3.362a7.776 7.776 0 0 0-1.715-.171c-1.464 0-2.574.446-3.328 1.338-.732.87-1.098 2.139-1.098 3.808v8.509h-3.808V14.41h3.773v1.955c.984-1.464 2.471-2.195 4.461-2.195Z"/>
  <path fill="url(#j)" d="m135 14.41-9.064 21.69h-.954v-7.52l-6.22-14.17h4.22l4.385 10.087 3.339-10.086H135Z"/>
  <defs>
    <linearGradient id="a" x1="15.275" x2="23.852" y1="22.941" y2="31.806" gradientUnits="userSpaceOnUse">
      <stop/>
      <stop offset=".5" stop-color="#33353B"/>
      <stop offset="1" stop-color="#626570"/>
    </linearGradient>
    <linearGradient id="b" x1="9.674" x2="13.947" y1="23.637" y2="16.54" gradientUnits="userSpaceOnUse">
      <stop stop-color="#00C2FF"/>
      <stop offset="1" stop-color="#112141" stop-opacity=".23"/>
    </linearGradient>
    <linearGradient id="c" x1="69.169" x2="69.509" y1="21.311" y2="29.503" gradientUnits="userSpaceOnUse">
      <stop/>
      <stop offset="1" stop-color="#4D4F59"/>
    </linearGradient>
    <linearGradient id="d" x1="69.169" x2="69.509" y1="21.311" y2="29.503" gradientUnits="userSpaceOnUse">
      <stop/>
      <stop offset="1" stop-color="#4D4F59"/>
    </linearGradient>
    <linearGradient id="e" x1="69.169" x2="69.509" y1="21.311" y2="29.503" gradientUnits="userSpaceOnUse">
      <stop/>
      <stop offset="1" stop-color="#4D4F59"/>
    </linearGradient>
    <linearGradient id="f" x1="69.169" x2="69.509" y1="21.311" y2="29.503" gradientUnits="userSpaceOnUse">
      <stop/>
      <stop offset="1" stop-color="#4D4F59"/>
    </linearGradient>
    <linearGradient id="g" x1="69.169" x2="69.509" y1="21.311" y2="29.503" gradientUnits="userSpaceOnUse">
      <stop/>
      <stop offset="1" stop-color="#4D4F59"/>
    </linearGradient>
    <linearGradient id="h" x1="69.169" x2="69.509" y1="21.311" y2="29.503" gradientUnits="userSpaceOnUse">
      <stop/>
      <stop offset="1" stop-color="#4D4F59"/>
    </linearGradient>
    <linearGradient id="i" x1="69.169" x2="69.509" y1="21.311" y2="29.503" gradientUnits="userSpaceOnUse">
      <stop/>
      <stop offset="1" stop-color="#4D4F59"/>
    </linearGradient>
    <linearGradient id="j" x1="69.169" x2="69.509" y1="21.311" y2="29.503" gradientUnits="userSpaceOnUse">
      <stop/>
      <stop offset="1" stop-color="#4D4F59"/>
    </linearGradient>
  </defs>
</svg>
