<svg xmlns="http://www.w3.org/2000/svg" width="150" height="43" fill="none" viewBox="0 0 150 43">
  <rect width="23.684" height="23.684" y="7.898" fill="url(#a)" rx="11.842"/>
  <path fill="#010101" d="M11.83 25.904c3.36 0 6.083-2.744 6.083-6.129 0-3.385-2.724-6.129-6.084-6.129-3.36 0-6.083 2.744-6.083 6.129 0 3.385 2.724 6.129 6.083 6.129Z"/>
  <path fill="#0A0A0A" fill-rule="evenodd" d="M11.832 23.608c2.074 0 3.792-1.698 3.792-3.837 0-2.14-1.713-3.838-3.792-3.838-2.078 0-3.792 1.699-3.792 3.838 0 2.14 1.714 3.837 3.792 3.837Zm0 2.5c3.473 0 6.291-2.84 6.291-6.337 0-3.498-2.818-6.337-6.29-6.337-3.473 0-6.292 2.839-6.292 6.337 0 3.498 2.819 6.337 6.291 6.337Z" clip-rule="evenodd"/>
  <path fill="url(#b)" fill-rule="evenodd" d="M11.83 23.638c2.09 0 3.818-1.713 3.818-3.863 0-2.149-1.729-3.862-3.817-3.862-2.089 0-3.817 1.713-3.817 3.863 0 2.149 1.728 3.862 3.817 3.862Zm0 2.52c3.499 0 6.338-2.86 6.338-6.383s-2.84-6.382-6.337-6.382c-3.498 0-6.337 2.86-6.337 6.383s2.839 6.382 6.337 6.382Z" clip-rule="evenodd"/>
  <path fill="#fff" d="M14.756 17.318a1.825 1.825 0 1 0 0-3.65 1.825 1.825 0 0 0 0 3.65Z"/>
  <path fill="url(#c)" d="M33.991 11.788c-.68 0-1.237-.193-1.669-.579-.431-.409-.647-.92-.647-1.533 0-.636.204-1.147.613-1.533.431-.409 1-.613 1.703-.613.659 0 1.193.204 1.602.613.408.386.613.897.613 1.533 0 .613-.216 1.124-.648 1.533-.408.386-.93.58-1.567.58ZM32.05 14.31h3.781v16.694H32.05V14.309Z"/>
  <path fill="url(#d)" d="M39.369 6.95h3.781v24.052h-3.78V6.951Z"/>
  <path fill="url(#e)" d="M46.688 6.95h3.781v24.052h-3.781V6.951Z"/>
  <path fill="url(#f)" d="M69.27 14.31v16.693h-1.06l-2.368-2.267c-1.158 1.567-3.216 2.71-5.532 2.71-2.044 0-3.634-.58-4.77-1.738-1.113-1.158-1.669-2.85-1.669-5.076V14.309h3.747v9.573c0 1.5.307 2.6.92 3.305.636.704 1.579 1.056 2.828 1.056 1.34 0 2.362-.386 3.066-1.158.727-.773 1.09-1.897 1.09-3.373v-9.403h3.748Z"/>
  <path fill="url(#g)" d="M79.107 31.514c-1.68 0-3.089-.273-4.225-.818-1.112-.545-1.919-1.363-2.418-2.453-.364-.795-.545-1.726-.545-2.794h3.679c0 .636.114 1.17.34 1.602.5 1.09 1.579 1.635 3.237 1.635 1.658 0 2.68-.432 3.066-1.295.114-.295.17-.579.17-.851a2.28 2.28 0 0 0-.17-.886 1.812 1.812 0 0 0-.784-.818c-.34-.204-.772-.374-1.294-.51-.5-.16-1.215-.33-2.146-.512-1.272-.295-2.351-.681-3.237-1.158-.886-.5-1.521-1.181-1.907-2.044-.228-.522-.341-1.136-.341-1.84 0-.75.136-1.408.409-1.976.431-.93 1.18-1.646 2.248-2.146 1.068-.522 2.35-.784 3.85-.784 1.521 0 2.805.25 3.85.75 1.067.5 1.839 1.238 2.316 2.214.295.682.443 1.5.443 2.453H82.07c0-.5-.091-.965-.273-1.397-.227-.454-.59-.794-1.09-1.022-.477-.25-1.056-.374-1.737-.374-1.386 0-2.26.374-2.624 1.124-.09.204-.136.465-.136.783 0 .296.046.523.136.682.16.363.443.658.852.886.409.227.84.408 1.295.545.477.113 1.17.272 2.078.477 1.408.363 2.555.795 3.44 1.294.91.477 1.568 1.147 1.977 2.01.227.523.34 1.147.34 1.874 0 .795-.136 1.533-.409 2.214-.477 1.022-1.328 1.806-2.555 2.35-1.203.523-2.623.785-4.258.785Z"/>
  <path fill="url(#h)" d="M96.775 31.411c-1.908 0-3.52-.397-4.838-1.192a7.264 7.264 0 0 1-2.93-3.305c-.568-1.203-.851-2.623-.851-4.258 0-1.635.283-3.066.851-4.293a7.264 7.264 0 0 1 2.93-3.304c1.317-.795 2.93-1.193 4.838-1.193 1.907 0 3.52.398 4.837 1.193a7.21 7.21 0 0 1 2.964 3.304c.568 1.272.852 2.703.852 4.293 0 1.544-.284 2.975-.852 4.292a7.211 7.211 0 0 1-2.964 3.305c-1.317.772-2.93 1.158-4.837 1.158Zm0-3.168c1.022 0 1.873-.204 2.555-.613a3.954 3.954 0 0 0 1.567-1.772c.341-.772.511-1.84.511-3.202 0-1.386-.17-2.453-.511-3.203a3.732 3.732 0 0 0-1.567-1.771c-.682-.409-1.533-.613-2.555-.613-1.022 0-1.874.204-2.555.613-.682.409-1.193 1-1.533 1.771-.364.795-.546 1.863-.546 3.203 0 1.317.182 2.385.546 3.202.34.75.851 1.34 1.533 1.772.681.409 1.533.613 2.555.613Z"/>
  <path fill="url(#i)" d="M116.346 14.07c.658 0 1.226.069 1.703.205v3.339a7.709 7.709 0 0 0-1.703-.17c-1.454 0-2.555.442-3.305 1.328-.727.863-1.09 2.124-1.09 3.782v8.449h-3.781V14.309h3.747v1.942c.977-1.453 2.453-2.18 4.429-2.18Z"/>
  <path fill="url(#j)" d="m135 14.31-9 21.535h-.947V28.38l-6.177-14.07h4.191l4.354 10.016 3.316-10.016H135Z"/>
  <defs>
    <linearGradient id="a" x1="15.168" x2="23.684" y1="22.78" y2="31.582" gradientUnits="userSpaceOnUse">
      <stop/>
      <stop offset=".5" stop-color="#33353B"/>
      <stop offset="1" stop-color="#626570"/>
    </linearGradient>
    <linearGradient id="b" x1="9.605" x2="13.849" y1="23.471" y2="16.425" gradientUnits="userSpaceOnUse">
      <stop stop-color="#0F6"/>
      <stop offset="1" stop-color="#112141" stop-opacity=".23"/>
    </linearGradient>
    <linearGradient id="c" x1="69.632" x2="69.969" y1="21.161" y2="29.296" gradientUnits="userSpaceOnUse">
      <stop stop-color="#fff"/>
      <stop offset="1" stop-color="#C1C1C1"/>
    </linearGradient>
    <linearGradient id="d" x1="69.632" x2="69.969" y1="21.161" y2="29.296" gradientUnits="userSpaceOnUse">
      <stop stop-color="#fff"/>
      <stop offset="1" stop-color="#C1C1C1"/>
    </linearGradient>
    <linearGradient id="e" x1="69.632" x2="69.969" y1="21.161" y2="29.296" gradientUnits="userSpaceOnUse">
      <stop stop-color="#fff"/>
      <stop offset="1" stop-color="#C1C1C1"/>
    </linearGradient>
    <linearGradient id="f" x1="69.632" x2="69.969" y1="21.161" y2="29.296" gradientUnits="userSpaceOnUse">
      <stop stop-color="#fff"/>
      <stop offset="1" stop-color="#C1C1C1"/>
    </linearGradient>
    <linearGradient id="g" x1="69.632" x2="69.969" y1="21.161" y2="29.296" gradientUnits="userSpaceOnUse">
      <stop stop-color="#fff"/>
      <stop offset="1" stop-color="#C1C1C1"/>
    </linearGradient>
    <linearGradient id="h" x1="69.632" x2="69.969" y1="21.161" y2="29.296" gradientUnits="userSpaceOnUse">
      <stop stop-color="#fff"/>
      <stop offset="1" stop-color="#C1C1C1"/>
    </linearGradient>
    <linearGradient id="i" x1="69.632" x2="69.969" y1="21.161" y2="29.296" gradientUnits="userSpaceOnUse">
      <stop stop-color="#fff"/>
      <stop offset="1" stop-color="#C1C1C1"/>
    </linearGradient>
    <linearGradient id="j" x1="69.632" x2="69.969" y1="21.161" y2="29.296" gradientUnits="userSpaceOnUse">
      <stop stop-color="#fff"/>
      <stop offset="1" stop-color="#C1C1C1"/>
    </linearGradient>
  </defs>
</svg>
