<svg xmlns="http://www.w3.org/2000/svg" width="150" height="44" fill="none" viewBox="0 0 150 44">
  <rect width="20.175" height="20.175" y="10.712" fill="url(#a)" rx="10.088"/>
  <path fill="#010101" d="M10.078 26.05c2.862 0 5.182-2.337 5.182-5.22 0-2.884-2.32-5.222-5.182-5.222-2.862 0-5.182 2.338-5.182 5.221 0 2.884 2.32 5.221 5.182 5.221Z"/>
  <path fill="#0A0A0A" fill-rule="evenodd" d="M10.08 24.095c1.766 0 3.23-1.446 3.23-3.269 0-1.822-1.46-3.269-3.23-3.269s-3.23 1.447-3.23 3.27c0 1.822 1.46 3.268 3.23 3.268Zm0 2.13c2.958 0 5.359-2.42 5.359-5.399 0-2.98-2.401-5.398-5.36-5.398-2.957 0-5.358 2.418-5.358 5.398 0 2.98 2.4 5.398 5.359 5.398Z" clip-rule="evenodd"/>
  <path fill="url(#b)" fill-rule="evenodd" d="M10.079 24.12c1.779 0 3.251-1.46 3.251-3.29 0-1.831-1.472-3.29-3.251-3.29-1.78 0-3.252 1.459-3.252 3.29 0 1.83 1.472 3.29 3.252 3.29Zm0 2.147c2.98 0 5.398-2.436 5.398-5.437 0-3.001-2.419-5.437-5.398-5.437-2.98 0-5.398 2.436-5.398 5.437 0 3.001 2.418 5.437 5.398 5.437Z" clip-rule="evenodd"/>
  <path fill="#fff" d="M12.57 18.736a1.555 1.555 0 1 0 0-3.109 1.555 1.555 0 0 0 0 3.11Z"/>
  <path fill="url(#c)" d="M28.956 14.026c-.58 0-1.055-.165-1.422-.494a1.725 1.725 0 0 1-.552-1.306c0-.541.175-.977.523-1.306.367-.348.851-.522 1.45-.522.562 0 1.017.174 1.365.523.348.328.522.764.522 1.305 0 .523-.184.958-.551 1.306-.349.33-.794.494-1.335.494Zm-1.654 2.147h3.22v14.22h-3.22v-14.22Z"/>
  <path fill="url(#d)" d="M33.536 9.905h3.222v20.488h-3.222V9.905Z"/>
  <path fill="url(#e)" d="M39.771 9.905h3.222v20.488H39.77V9.905Z"/>
  <path fill="url(#f)" d="M59.008 16.173v14.22h-.903l-2.017-1.93c-.987 1.334-2.74 2.308-4.713 2.308-1.741 0-3.095-.494-4.063-1.48-.948-.987-1.422-2.428-1.422-4.325v-8.793h3.193v8.155c0 1.277.26 2.215.783 2.815.542.6 1.345.9 2.409.9 1.141 0 2.012-.33 2.612-.987.619-.658.928-1.616.928-2.873v-8.01h3.193Z"/>
  <path fill="url(#g)" d="M67.388 30.829c-1.432 0-2.632-.233-3.6-.697-.947-.464-1.634-1.16-2.06-2.09-.31-.677-.464-1.47-.464-2.379h3.134c0 .542.097.996.29 1.364.426.929 1.345 1.393 2.757 1.393 1.413 0 2.284-.368 2.612-1.103a1.943 1.943 0 0 0 0-1.48 1.544 1.544 0 0 0-.667-.696 4.223 4.223 0 0 0-1.103-.436c-.425-.135-1.035-.28-1.828-.435-1.084-.252-2.003-.58-2.757-.987-.755-.425-1.296-1.006-1.625-1.741-.194-.445-.29-.967-.29-1.567 0-.639.116-1.2.348-1.683.367-.794 1.006-1.403 1.915-1.829.91-.445 2.002-.667 3.28-.667 1.296 0 2.389.213 3.279.638.91.426 1.567 1.055 1.973 1.887.252.58.377 1.277.377 2.09h-3.047c0-.426-.077-.823-.232-1.19a1.856 1.856 0 0 0-.929-.871c-.406-.213-.9-.32-1.48-.32-1.18 0-1.925.32-2.234.958a1.652 1.652 0 0 0-.116.668c0 .251.038.445.116.58.135.31.377.561.725.755.349.193.716.348 1.103.464.406.097.997.232 1.77.406 1.2.31 2.177.677 2.931 1.103.774.406 1.335.977 1.684 1.712.193.445.29.977.29 1.596 0 .678-.116 1.306-.348 1.887-.407.87-1.132 1.538-2.177 2.002-1.025.445-2.235.668-3.627.668Z"/>
  <path fill="url(#h)" d="M82.438 30.742c-1.625 0-2.999-.339-4.121-1.016a6.187 6.187 0 0 1-2.496-2.815c-.484-1.026-.725-2.235-.725-3.628 0-1.393.241-2.612.725-3.656a6.188 6.188 0 0 1 2.496-2.815c1.122-.678 2.496-1.016 4.12-1.016 1.626 0 3 .338 4.122 1.016a6.142 6.142 0 0 1 2.525 2.815c.483 1.083.725 2.302.725 3.656 0 1.316-.242 2.535-.725 3.657a6.143 6.143 0 0 1-2.525 2.815c-1.122.658-2.496.987-4.121.987Zm0-2.7c.87 0 1.596-.174 2.176-.522.6-.367 1.045-.87 1.335-1.509.29-.658.436-1.567.436-2.728 0-1.18-.145-2.09-.436-2.728a3.178 3.178 0 0 0-1.335-1.509c-.58-.348-1.306-.522-2.176-.522-.87 0-1.596.174-2.177.522-.58.349-1.015.852-1.306 1.51-.31.677-.464 1.586-.464 2.727 0 1.122.155 2.032.464 2.728a3.42 3.42 0 0 0 1.306 1.51c.58.348 1.306.522 2.177.522Z"/>
  <path fill="url(#i)" d="M99.11 15.97c.56 0 1.044.058 1.45.174v2.844a6.57 6.57 0 0 0-1.45-.145c-1.239 0-2.177.377-2.816 1.132-.619.735-.928 1.809-.928 3.221v7.197h-3.222v-14.22h3.193v1.654c.832-1.238 2.09-1.857 3.772-1.857Z"/>
  <path fill="url(#j)" d="m115 16.173-7.667 18.346h-.807v-6.36l-5.261-11.986h3.57l3.709 8.532 2.825-8.532H115Z"/>
  <defs>
    <linearGradient id="a" x1="12.921" x2="20.175" y1="23.389" y2="30.887" gradientUnits="userSpaceOnUse">
      <stop/>
      <stop offset=".5" stop-color="#33353B"/>
      <stop offset="1" stop-color="#626570"/>
    </linearGradient>
    <linearGradient id="b" x1="8.183" x2="11.797" y1="23.978" y2="17.976" gradientUnits="userSpaceOnUse">
      <stop stop-color="#00C2FF"/>
      <stop offset="1" stop-color="#112141" stop-opacity=".23"/>
    </linearGradient>
    <linearGradient id="c" x1="59.316" x2="59.603" y1="22.01" y2="28.939" gradientUnits="userSpaceOnUse">
      <stop stop-color="#fff"/>
      <stop offset="1" stop-color="#C1C1C1"/>
    </linearGradient>
    <linearGradient id="d" x1="59.316" x2="59.603" y1="22.01" y2="28.939" gradientUnits="userSpaceOnUse">
      <stop stop-color="#fff"/>
      <stop offset="1" stop-color="#C1C1C1"/>
    </linearGradient>
    <linearGradient id="e" x1="59.316" x2="59.603" y1="22.01" y2="28.939" gradientUnits="userSpaceOnUse">
      <stop stop-color="#fff"/>
      <stop offset="1" stop-color="#C1C1C1"/>
    </linearGradient>
    <linearGradient id="f" x1="59.316" x2="59.603" y1="22.01" y2="28.939" gradientUnits="userSpaceOnUse">
      <stop stop-color="#fff"/>
      <stop offset="1" stop-color="#C1C1C1"/>
    </linearGradient>
    <linearGradient id="g" x1="59.316" x2="59.603" y1="22.01" y2="28.939" gradientUnits="userSpaceOnUse">
      <stop stop-color="#fff"/>
      <stop offset="1" stop-color="#C1C1C1"/>
    </linearGradient>
    <linearGradient id="h" x1="59.316" x2="59.603" y1="22.01" y2="28.939" gradientUnits="userSpaceOnUse">
      <stop stop-color="#fff"/>
      <stop offset="1" stop-color="#C1C1C1"/>
    </linearGradient>
    <linearGradient id="i" x1="59.316" x2="59.603" y1="22.01" y2="28.939" gradientUnits="userSpaceOnUse">
      <stop stop-color="#fff"/>
      <stop offset="1" stop-color="#C1C1C1"/>
    </linearGradient>
    <linearGradient id="j" x1="59.316" x2="59.603" y1="22.01" y2="28.939" gradientUnits="userSpaceOnUse">
      <stop stop-color="#fff"/>
      <stop offset="1" stop-color="#C1C1C1"/>
    </linearGradient>
  </defs>
</svg>
