<svg xmlns="http://www.w3.org/2000/svg" width="150" height="44" fill="none" viewBox="0 0 150 44">
  <rect width="23.684" height="23.684" y="8.711" fill="url(#a)" rx="11.842"/>
  <path fill="#010101" d="M11.83 26.717c3.36 0 6.083-2.744 6.083-6.129 0-3.385-2.724-6.129-6.084-6.129-3.36 0-6.083 2.744-6.083 6.13 0 3.384 2.724 6.128 6.083 6.128Z"/>
  <path fill="#0A0A0A" fill-rule="evenodd" d="M11.832 24.422c2.074 0 3.792-1.698 3.792-3.838 0-2.139-1.713-3.837-3.792-3.837-2.078 0-3.792 1.698-3.792 3.837 0 2.14 1.714 3.838 3.792 3.838Zm0 2.5c3.473 0 6.291-2.84 6.291-6.338s-2.818-6.336-6.29-6.336c-3.473 0-6.292 2.838-6.292 6.336s2.819 6.337 6.291 6.337Z" clip-rule="evenodd"/>
  <path fill="url(#b)" fill-rule="evenodd" d="M11.83 24.452c2.09 0 3.818-1.714 3.818-3.863 0-2.15-1.729-3.863-3.817-3.863-2.089 0-3.817 1.713-3.817 3.863s1.728 3.863 3.817 3.863Zm0 2.52c3.499 0 6.338-2.86 6.338-6.383s-2.84-6.382-6.337-6.382c-3.498 0-6.337 2.859-6.337 6.382 0 3.523 2.839 6.382 6.337 6.382Z" clip-rule="evenodd"/>
  <path fill="#fff" d="M14.756 18.131a1.825 1.825 0 1 0 0-3.65 1.825 1.825 0 0 0 0 3.65Z"/>
  <path fill="url(#c)" d="M33.991 12.602c-.68 0-1.237-.193-1.669-.58-.431-.408-.647-.92-.647-1.532 0-.636.204-1.147.613-1.533.431-.41 1-.614 1.703-.614.659 0 1.193.205 1.602.614.408.386.613.897.613 1.533 0 .613-.216 1.124-.648 1.533-.408.386-.93.579-1.567.579Zm-1.941 2.52h3.781v16.694H32.05V15.123Z"/>
  <path fill="url(#d)" d="M39.369 7.764h3.781v24.052h-3.78V7.764Z"/>
  <path fill="url(#e)" d="M46.688 7.764h3.781v24.052h-3.781V7.764Z"/>
  <path fill="url(#f)" d="M69.27 15.123v16.693h-1.06l-2.368-2.267c-1.158 1.567-3.216 2.71-5.532 2.71-2.044 0-3.634-.58-4.77-1.738-1.113-1.158-1.669-2.85-1.669-5.076V15.123h3.747v9.573c0 1.499.307 2.6.92 3.304.636.704 1.579 1.056 2.828 1.056 1.34 0 2.362-.386 3.066-1.158.727-.772 1.09-1.896 1.09-3.372v-9.403h3.748Z"/>
  <path fill="url(#g)" d="M79.107 32.327c-1.68 0-3.089-.273-4.225-.818-1.112-.545-1.919-1.362-2.418-2.453-.364-.794-.545-1.726-.545-2.793h3.679c0 .636.114 1.17.34 1.601.5 1.09 1.579 1.635 3.237 1.635 1.658 0 2.68-.431 3.066-1.294.114-.295.17-.58.17-.852a2.28 2.28 0 0 0-.17-.886 1.811 1.811 0 0 0-.784-.817c-.34-.205-.772-.375-1.294-.511-.5-.16-1.215-.33-2.146-.511-1.272-.296-2.351-.682-3.237-1.159-.886-.5-1.521-1.18-1.907-2.044-.228-.522-.341-1.135-.341-1.84 0-.749.136-1.408.409-1.975.431-.931 1.18-1.647 2.248-2.146 1.068-.523 2.35-.784 3.85-.784 1.521 0 2.805.25 3.85.75 1.067.499 1.839 1.237 2.316 2.214.295.681.443 1.499.443 2.453H82.07c0-.5-.091-.966-.273-1.397-.227-.454-.59-.795-1.09-1.022-.477-.25-1.056-.375-1.737-.375-1.386 0-2.26.375-2.624 1.124-.09.205-.136.466-.136.784 0 .295.046.522.136.681.16.364.443.659.852.886.409.227.84.409 1.295.545.477.114 1.17.273 2.078.477 1.408.363 2.555.795 3.44 1.295.91.477 1.568 1.147 1.977 2.01.227.522.34 1.147.34 1.873 0 .795-.136 1.533-.409 2.215-.477 1.022-1.328 1.805-2.555 2.35-1.203.523-2.623.784-4.258.784Z"/>
  <path fill="url(#h)" d="M96.775 32.225c-1.908 0-3.52-.398-4.838-1.193a7.264 7.264 0 0 1-2.93-3.304c-.568-1.204-.851-2.623-.851-4.259 0-1.635.283-3.066.851-4.292a7.264 7.264 0 0 1 2.93-3.305c1.317-.795 2.93-1.192 4.838-1.192 1.907 0 3.52.397 4.837 1.192a7.211 7.211 0 0 1 2.964 3.305c.568 1.272.852 2.703.852 4.292 0 1.545-.284 2.976-.852 4.293a7.211 7.211 0 0 1-2.964 3.305c-1.317.772-2.93 1.158-4.837 1.158Zm0-3.169c1.022 0 1.873-.204 2.555-.613a3.953 3.953 0 0 0 1.567-1.771c.341-.773.511-1.84.511-3.203 0-1.385-.17-2.453-.511-3.202a3.732 3.732 0 0 0-1.567-1.771c-.682-.41-1.533-.614-2.555-.614-1.022 0-1.874.205-2.555.613-.682.41-1.193 1-1.533 1.772-.364.795-.546 1.862-.546 3.202 0 1.318.182 2.385.546 3.203a4 4 0 0 0 1.533 1.771c.681.41 1.533.613 2.555.613Z"/>
  <path fill="url(#i)" d="M116.346 14.884c.658 0 1.226.068 1.703.205v3.338a7.715 7.715 0 0 0-1.703-.17c-1.454 0-2.555.443-3.305 1.329-.727.863-1.09 2.123-1.09 3.781v8.449h-3.781V15.123h3.747v1.942c.977-1.454 2.453-2.18 4.429-2.18Z"/>
  <path fill="url(#j)" d="m135 15.123-9 21.536h-.947v-7.466l-6.177-14.07h4.191l4.354 10.016 3.316-10.016H135Z"/>
  <defs>
    <linearGradient id="a" x1="15.168" x2="23.684" y1="23.594" y2="32.396" gradientUnits="userSpaceOnUse">
      <stop/>
      <stop offset=".5" stop-color="#33353B"/>
      <stop offset="1" stop-color="#626570"/>
    </linearGradient>
    <linearGradient id="b" x1="9.605" x2="13.849" y1="24.285" y2="17.238" gradientUnits="userSpaceOnUse">
      <stop stop-color="#00C2FF"/>
      <stop offset="1" stop-color="#112141" stop-opacity=".23"/>
    </linearGradient>
    <linearGradient id="c" x1="69.632" x2="69.969" y1="21.975" y2="30.109" gradientUnits="userSpaceOnUse">
      <stop stop-color="#fff"/>
      <stop offset="1" stop-color="#C1C1C1"/>
    </linearGradient>
    <linearGradient id="d" x1="69.632" x2="69.969" y1="21.975" y2="30.109" gradientUnits="userSpaceOnUse">
      <stop stop-color="#fff"/>
      <stop offset="1" stop-color="#C1C1C1"/>
    </linearGradient>
    <linearGradient id="e" x1="69.632" x2="69.969" y1="21.975" y2="30.109" gradientUnits="userSpaceOnUse">
      <stop stop-color="#fff"/>
      <stop offset="1" stop-color="#C1C1C1"/>
    </linearGradient>
    <linearGradient id="f" x1="69.632" x2="69.969" y1="21.975" y2="30.109" gradientUnits="userSpaceOnUse">
      <stop stop-color="#fff"/>
      <stop offset="1" stop-color="#C1C1C1"/>
    </linearGradient>
    <linearGradient id="g" x1="69.632" x2="69.969" y1="21.975" y2="30.109" gradientUnits="userSpaceOnUse">
      <stop stop-color="#fff"/>
      <stop offset="1" stop-color="#C1C1C1"/>
    </linearGradient>
    <linearGradient id="h" x1="69.632" x2="69.969" y1="21.975" y2="30.109" gradientUnits="userSpaceOnUse">
      <stop stop-color="#fff"/>
      <stop offset="1" stop-color="#C1C1C1"/>
    </linearGradient>
    <linearGradient id="i" x1="69.632" x2="69.969" y1="21.975" y2="30.109" gradientUnits="userSpaceOnUse">
      <stop stop-color="#fff"/>
      <stop offset="1" stop-color="#C1C1C1"/>
    </linearGradient>
    <linearGradient id="j" x1="69.632" x2="69.969" y1="21.975" y2="30.109" gradientUnits="userSpaceOnUse">
      <stop stop-color="#fff"/>
      <stop offset="1" stop-color="#C1C1C1"/>
    </linearGradient>
  </defs>
</svg>
