<svg xmlns="http://www.w3.org/2000/svg" width="150" height="44" fill="none" viewBox="0 0 150 44">
  <rect width="14.868" height="14.868" y="13.737" fill="url(#a)" rx="7.434"/>
  <path fill="#010101" d="M7.426 25.04c2.11 0 3.819-1.722 3.819-3.847s-1.71-3.847-3.819-3.847-3.819 1.722-3.819 3.847 1.71 3.848 3.82 3.848Z"/>
  <path fill="#0A0A0A" fill-rule="evenodd" d="M7.428 23.6c1.301 0 2.38-1.066 2.38-2.41a2.393 2.393 0 0 0-2.38-2.408 2.393 2.393 0 0 0-2.38 2.409 2.393 2.393 0 0 0 2.38 2.409Zm0 1.569c2.18 0 3.949-1.782 3.949-3.978s-1.77-3.978-3.95-3.978S3.48 18.995 3.48 21.19s1.769 3.978 3.949 3.978Z" clip-rule="evenodd"/>
  <path fill="url(#b)" fill-rule="evenodd" d="M7.427 23.619c1.311 0 2.396-1.076 2.396-2.425 0-1.35-1.085-2.425-2.396-2.425s-2.396 1.075-2.396 2.425c0 1.349 1.085 2.425 2.396 2.425Zm0 1.581c2.196 0 3.978-1.795 3.978-4.006 0-2.212-1.782-4.007-3.978-4.007S3.45 18.982 3.45 21.194c0 2.211 1.782 4.006 3.978 4.006Z" clip-rule="evenodd"/>
  <path fill="#fff" d="M9.263 19.65a1.146 1.146 0 1 0 0-2.29 1.146 1.146 0 0 0 0 2.29Z"/>
  <path fill="url(#c)" d="M21.338 16.18c-.428 0-.777-.122-1.048-.364a1.27 1.27 0 0 1-.406-.963c0-.399.128-.72.385-.962.27-.257.627-.385 1.069-.385.413 0 .748.128 1.005.385.257.242.385.563.385.962 0 .385-.135.706-.406.963-.257.242-.585.363-.984.363Zm-1.219 1.582h2.374V28.24h-2.374V17.76Z"/>
  <path fill="url(#d)" d="M24.714 13.143h2.373V28.24h-2.373V13.143Z"/>
  <path fill="url(#e)" d="M29.308 13.143h2.374V28.24h-2.374V13.143Z"/>
  <path fill="url(#f)" d="M43.484 17.762V28.24h-.665l-1.487-1.423c-.727.984-2.019 1.701-3.473 1.701-1.283 0-2.28-.364-2.994-1.09-.698-.728-1.048-1.79-1.048-3.187v-6.48h2.353v6.01c0 .94.192 1.632.577 2.074.4.442.991.663 1.775.663.841 0 1.483-.243 1.925-.727.456-.485.684-1.19.684-2.118v-5.902h2.353Z"/>
  <path fill="url(#g)" d="M49.66 28.562c-1.056 0-1.94-.171-2.653-.514a3.127 3.127 0 0 1-1.518-1.54c-.228-.498-.342-1.083-.342-1.753h2.31c0 .4.07.734.213 1.005.314.685.991 1.027 2.032 1.027 1.04 0 1.682-.271 1.925-.813a1.433 1.433 0 0 0 0-1.09 1.138 1.138 0 0 0-.492-.514 3.113 3.113 0 0 0-.813-.32 12.79 12.79 0 0 0-1.347-.321c-.799-.186-1.476-.428-2.032-.728-.556-.313-.955-.74-1.198-1.283-.142-.328-.213-.713-.213-1.154 0-.471.085-.884.256-1.24.271-.586.742-1.035 1.412-1.348.67-.328 1.475-.492 2.416-.492.956 0 1.761.157 2.417.47.67.314 1.155.777 1.454 1.39.185.428.278.941.278 1.54H51.52c0-.313-.057-.606-.172-.877a1.368 1.368 0 0 0-.684-.641c-.3-.157-.663-.235-1.09-.235-.87 0-1.42.235-1.647.705a1.219 1.219 0 0 0-.086.492c0 .186.029.328.086.428.1.228.278.413.534.556.257.142.528.257.813.342.3.071.734.171 1.305.3.884.228 1.604.498 2.16.812.57.3.983.72 1.24 1.262.143.328.214.72.214 1.176 0 .5-.086.963-.257 1.39-.3.642-.834 1.134-1.604 1.476-.755.328-1.646.492-2.673.492Z"/>
  <path fill="url(#h)" d="M60.75 28.498c-1.198 0-2.21-.25-3.037-.749a4.56 4.56 0 0 1-1.839-2.074c-.357-.756-.535-1.647-.535-2.674 0-1.026.178-1.924.535-2.694a4.56 4.56 0 0 1 1.84-2.075c.826-.499 1.838-.748 3.036-.748s2.21.25 3.037.748a4.527 4.527 0 0 1 1.86 2.075c.357.798.535 1.696.535 2.694 0 .97-.178 1.868-.535 2.695a4.527 4.527 0 0 1-1.86 2.074c-.827.485-1.84.728-3.037.728Zm0-1.99c.642 0 1.176-.128 1.604-.384.442-.271.77-.642.984-1.112.213-.485.32-1.155.32-2.01 0-.87-.107-1.54-.32-2.01a2.341 2.341 0 0 0-.984-1.113c-.428-.257-.962-.385-1.604-.385-.642 0-1.176.128-1.604.385a2.376 2.376 0 0 0-.962 1.112c-.228.5-.342 1.17-.342 2.01 0 .827.114 1.497.342 2.01.214.471.534.842.962 1.113.428.256.962.385 1.604.385Z"/>
  <path fill="url(#i)" d="M73.036 17.612a3.9 3.9 0 0 1 1.069.129v2.095a4.852 4.852 0 0 0-1.07-.107c-.912 0-1.603.278-2.074.835-.456.541-.684 1.332-.684 2.373v5.304h-2.374v-10.48h2.352v1.22c.614-.913 1.54-1.369 2.78-1.369Z"/>
  <path fill="url(#j)" d="m84.746 17.762-5.65 13.52h-.595v-4.688l-3.877-8.832h2.63l2.734 6.287 2.082-6.287h2.676Z"/>
  <defs>
    <linearGradient id="a" x1="9.521" x2="14.868" y1="23.079" y2="28.605" gradientUnits="userSpaceOnUse">
      <stop/>
      <stop offset=".5" stop-color="#33353B"/>
      <stop offset="1" stop-color="#626570"/>
    </linearGradient>
    <linearGradient id="b" x1="6.03" x2="8.694" y1="23.514" y2="19.09" gradientUnits="userSpaceOnUse">
      <stop stop-color="#00C2FF"/>
      <stop offset="1" stop-color="#112141" stop-opacity=".23"/>
    </linearGradient>
    <linearGradient id="c" x1="43.711" x2="43.923" y1="22.063" y2="27.17" gradientUnits="userSpaceOnUse">
      <stop stop-color="#fff"/>
      <stop offset="1" stop-color="#C1C1C1"/>
    </linearGradient>
    <linearGradient id="d" x1="43.711" x2="43.923" y1="22.063" y2="27.17" gradientUnits="userSpaceOnUse">
      <stop stop-color="#fff"/>
      <stop offset="1" stop-color="#C1C1C1"/>
    </linearGradient>
    <linearGradient id="e" x1="43.711" x2="43.923" y1="22.063" y2="27.17" gradientUnits="userSpaceOnUse">
      <stop stop-color="#fff"/>
      <stop offset="1" stop-color="#C1C1C1"/>
    </linearGradient>
    <linearGradient id="f" x1="43.711" x2="43.923" y1="22.063" y2="27.17" gradientUnits="userSpaceOnUse">
      <stop stop-color="#fff"/>
      <stop offset="1" stop-color="#C1C1C1"/>
    </linearGradient>
    <linearGradient id="g" x1="43.711" x2="43.923" y1="22.063" y2="27.17" gradientUnits="userSpaceOnUse">
      <stop stop-color="#fff"/>
      <stop offset="1" stop-color="#C1C1C1"/>
    </linearGradient>
    <linearGradient id="h" x1="43.711" x2="43.923" y1="22.063" y2="27.17" gradientUnits="userSpaceOnUse">
      <stop stop-color="#fff"/>
      <stop offset="1" stop-color="#C1C1C1"/>
    </linearGradient>
    <linearGradient id="i" x1="43.711" x2="43.923" y1="22.063" y2="27.17" gradientUnits="userSpaceOnUse">
      <stop stop-color="#fff"/>
      <stop offset="1" stop-color="#C1C1C1"/>
    </linearGradient>
    <linearGradient id="j" x1="43.711" x2="43.923" y1="22.063" y2="27.17" gradientUnits="userSpaceOnUse">
      <stop stop-color="#fff"/>
      <stop offset="1" stop-color="#C1C1C1"/>
    </linearGradient>
  </defs>
</svg>
