<svg xmlns="http://www.w3.org/2000/svg" width="150" height="44" fill="none" viewBox="0 0 150 44">
  <rect width="21.754" height="21.754" y="9.812" fill="url(#a)" rx="10.877"/>
  <path fill="#010101" d="M10.866 26.35c3.086 0 5.588-2.52 5.588-5.63 0-3.108-2.502-5.629-5.588-5.629-3.086 0-5.588 2.52-5.588 5.63 0 3.109 2.502 5.63 5.588 5.63Z"/>
  <path fill="#0A0A0A" fill-rule="evenodd" d="M10.868 24.242c1.905 0 3.483-1.56 3.483-3.525 0-1.965-1.574-3.524-3.483-3.524s-3.483 1.56-3.483 3.524c0 1.965 1.574 3.525 3.483 3.525Zm0 2.296c3.19 0 5.779-2.608 5.779-5.82 0-3.213-2.589-5.821-5.779-5.821s-5.778 2.607-5.778 5.82 2.589 5.82 5.778 5.82Z" clip-rule="evenodd"/>
  <path fill="url(#b)" fill-rule="evenodd" d="M10.867 24.27c1.919 0 3.507-1.574 3.507-3.549 0-1.974-1.588-3.548-3.507-3.548-1.918 0-3.506 1.574-3.506 3.548 0 1.975 1.588 3.548 3.506 3.548Zm0 2.314c3.213 0 5.82-2.627 5.82-5.863 0-3.236-2.607-5.862-5.82-5.862s-5.82 2.626-5.82 5.862 2.607 5.863 5.82 5.863Z" clip-rule="evenodd"/>
  <path fill="#fff" d="M13.553 18.464a1.676 1.676 0 1 0 0-3.353 1.676 1.676 0 0 0 0 3.353Z"/>
  <path fill="url(#c)" d="M31.222 13.385c-.626 0-1.137-.178-1.534-.532a1.86 1.86 0 0 1-.594-1.408c0-.584.188-1.054.563-1.408.396-.376.918-.564 1.565-.564.605 0 1.095.188 1.47.564.376.354.564.824.564 1.408a1.86 1.86 0 0 1-.595 1.408c-.376.354-.855.532-1.44.532ZM29.438 15.7h3.473v15.333h-3.473V15.7Z"/>
  <path fill="url(#d)" d="M36.16 8.941h3.474v22.092h-3.473V8.941Z"/>
  <path fill="url(#e)" d="M42.884 8.941h3.473v22.092h-3.473V8.941Z"/>
  <path fill="url(#f)" d="M63.625 15.7v15.333h-.973l-2.175-2.082c-1.064 1.44-2.954 2.49-5.082 2.49-1.877 0-3.337-.533-4.38-1.597-1.023-1.064-1.534-2.618-1.534-4.662V15.7h3.442v8.793c0 1.377.282 2.389.845 3.036.584.646 1.45.97 2.597.97 1.231 0 2.17-.355 2.817-1.064.667-.71 1.001-1.742 1.001-3.098V15.7h3.442Z"/>
  <path fill="url(#g)" d="M72.66 31.503c-1.543 0-2.836-.25-3.88-.751-1.022-.5-1.762-1.252-2.221-2.253-.334-.73-.5-1.586-.5-2.566h3.379c0 .584.104 1.074.313 1.47.459 1.002 1.45 1.503 2.972 1.503 1.523 0 2.462-.397 2.817-1.19.104-.27.156-.532.156-.782 0-.292-.052-.563-.156-.813a1.664 1.664 0 0 0-.72-.751c-.313-.188-.71-.345-1.189-.47-.459-.146-1.116-.302-1.971-.47-1.169-.27-2.16-.625-2.973-1.063-.814-.459-1.398-1.085-1.752-1.878-.21-.48-.313-1.043-.313-1.69 0-.688.125-1.293.375-1.814.397-.856 1.085-1.513 2.065-1.972.98-.48 2.16-.72 3.536-.72 1.398 0 2.577.23 3.536.689.98.459 1.69 1.137 2.128 2.034.271.626.407 1.377.407 2.253h-3.286c0-.459-.083-.887-.25-1.283-.209-.417-.542-.73-1.001-.939-.439-.23-.97-.344-1.596-.344-1.273 0-2.076.344-2.41 1.033-.083.188-.125.427-.125.72 0 .27.042.48.125.625.146.334.407.605.783.814.375.209.771.375 1.189.5.438.105 1.074.25 1.909.439 1.293.333 2.346.73 3.16 1.189.834.438 1.44 1.053 1.815 1.846.209.48.313 1.053.313 1.721 0 .73-.125 1.408-.376 2.034-.438.939-1.22 1.658-2.347 2.159-1.105.48-2.41.72-3.911.72Z"/>
  <path fill="url(#h)" d="M88.89 31.409c-1.753 0-3.234-.365-4.444-1.095a6.672 6.672 0 0 1-2.691-3.036c-.522-1.105-.783-2.41-.783-3.911 0-1.502.261-2.816.783-3.943a6.673 6.673 0 0 1 2.69-3.035c1.21-.73 2.692-1.095 4.444-1.095 1.752 0 3.234.365 4.444 1.095a6.624 6.624 0 0 1 2.722 3.035c.521 1.168.782 2.483.782 3.943 0 1.418-.26 2.733-.782 3.943a6.623 6.623 0 0 1-2.723 3.035c-1.21.71-2.69 1.064-4.443 1.064Zm0-2.91c.938 0 1.72-.188 2.346-.563a3.63 3.63 0 0 0 1.44-1.628c.312-.709.469-1.69.469-2.941 0-1.273-.157-2.253-.47-2.942a3.427 3.427 0 0 0-1.439-1.627c-.626-.375-1.408-.563-2.347-.563-.939 0-1.72.188-2.347.563-.626.376-1.095.918-1.408 1.628-.334.73-.5 1.71-.5 2.94 0 1.21.166 2.191.5 2.942a3.69 3.69 0 0 0 1.408 1.628c.626.375 1.408.563 2.347.563Z"/>
  <path fill="url(#i)" d="M106.865 15.481c.605 0 1.127.063 1.565.188v3.067a7.09 7.09 0 0 0-1.565-.157c-1.335 0-2.346.407-3.035 1.22-.667.793-1.001 1.951-1.001 3.474v7.76h-3.473V15.7h3.442v1.784c.897-1.335 2.253-2.003 4.067-2.003Z"/>
  <path fill="url(#j)" d="m124 15.7-8.267 19.782h-.87v-6.858L109.19 15.7h3.849l3.999 9.2 3.046-9.2H124Z"/>
  <defs>
    <linearGradient id="a" x1="13.932" x2="21.754" y1="23.481" y2="31.566" gradientUnits="userSpaceOnUse">
      <stop/>
      <stop offset=".5" stop-color="#33353B"/>
      <stop offset="1" stop-color="#626570"/>
    </linearGradient>
    <linearGradient id="b" x1="8.823" x2="12.721" y1="24.116" y2="17.643" gradientUnits="userSpaceOnUse">
      <stop stop-color="#00C2FF"/>
      <stop offset="1" stop-color="#112141" stop-opacity=".23"/>
    </linearGradient>
    <linearGradient id="c" x1="63.958" x2="64.267" y1="21.994" y2="29.466" gradientUnits="userSpaceOnUse">
      <stop stop-color="#fff"/>
      <stop offset="1" stop-color="#C1C1C1"/>
    </linearGradient>
    <linearGradient id="d" x1="63.958" x2="64.267" y1="21.994" y2="29.466" gradientUnits="userSpaceOnUse">
      <stop stop-color="#fff"/>
      <stop offset="1" stop-color="#C1C1C1"/>
    </linearGradient>
    <linearGradient id="e" x1="63.958" x2="64.267" y1="21.994" y2="29.466" gradientUnits="userSpaceOnUse">
      <stop stop-color="#fff"/>
      <stop offset="1" stop-color="#C1C1C1"/>
    </linearGradient>
    <linearGradient id="f" x1="63.958" x2="64.267" y1="21.994" y2="29.466" gradientUnits="userSpaceOnUse">
      <stop stop-color="#fff"/>
      <stop offset="1" stop-color="#C1C1C1"/>
    </linearGradient>
    <linearGradient id="g" x1="63.958" x2="64.267" y1="21.994" y2="29.466" gradientUnits="userSpaceOnUse">
      <stop stop-color="#fff"/>
      <stop offset="1" stop-color="#C1C1C1"/>
    </linearGradient>
    <linearGradient id="h" x1="63.958" x2="64.267" y1="21.994" y2="29.466" gradientUnits="userSpaceOnUse">
      <stop stop-color="#fff"/>
      <stop offset="1" stop-color="#C1C1C1"/>
    </linearGradient>
    <linearGradient id="i" x1="63.958" x2="64.267" y1="21.994" y2="29.466" gradientUnits="userSpaceOnUse">
      <stop stop-color="#fff"/>
      <stop offset="1" stop-color="#C1C1C1"/>
    </linearGradient>
    <linearGradient id="j" x1="63.958" x2="64.267" y1="21.994" y2="29.466" gradientUnits="userSpaceOnUse">
      <stop stop-color="#fff"/>
      <stop offset="1" stop-color="#C1C1C1"/>
    </linearGradient>
  </defs>
</svg>
